<?xml version="1.0" standalone="no"?>
<!DOCTYPE svg PUBLIC "-//W3C//DTD SVG 20010904//EN"
 "http://www.w3.org/TR/2001/REC-SVG-20010904/DTD/svg10.dtd">
<svg version="1.0" xmlns="http://www.w3.org/2000/svg"
 width="700.000000pt" height="700.000000pt" viewBox="0 0 700.000000 700.000000"
 preserveAspectRatio="xMidYMid meet">
<metadata>
Created by potrace 1.11, written by Peter Selinger 2001-2013
</metadata>
<g transform="translate(0.000000,700.000000) scale(0.100000,-0.100000)"
fill="#000000" stroke="none">
<path d="M4727 5834 c-1 -1 -40 -4 -87 -7 -97 -7 -116 -10 -220 -38 -75 -21
-246 -97 -286 -128 -12 -9 -32 -23 -44 -31 -191 -126 -366 -375 -426 -604 -38
-145 -39 -163 -39 -813 0 -337 -2 -614 -5 -615 -3 0 -282 -2 -620 -3 -418 -2
-636 -6 -680 -14 -208 -38 -372 -111 -530 -237 -195 -155 -346 -407 -386 -644
-3 -14 -7 -32 -11 -40 -9 -20 -12 -1396 -4 -1428 4 -14 19 -35 34 -46 26 -19
42 -19 694 -18 367 1 693 4 723 7 95 10 241 54 345 104 233 114 410 294 522
532 41 85 89 254 97 339 2 25 5 318 5 652 l1 606 608 0 c334 0 632 3 662 7
108 14 246 56 345 104 318 156 531 433 605 786 17 83 19 146 20 778 l1 688
-30 29 c-16 17 -40 30 -53 31 -37 1 -1240 4 -1241 3z m-1104 -3009 c0 -620 -3
-683 -34 -796 -88 -317 -336 -561 -658 -647 l-96 -25 -633 -2 -632 -2 0 611
c1 660 3 689 57 839 34 98 80 178 153 271 130 164 381 302 585 323 33 3 61 7
63 8 2 2 271 2 599 1 l596 -1 0 -580z"/>
<path d="M2693 5695 c-34 -14 -63 -59 -63 -97 0 -40 36 -86 76 -97 66 -18 134
28 134 91 0 83 -73 134 -147 103z"/>
<path d="M2215 5073 c-133 -39 -239 -155 -264 -288 -32 -171 55 -338 217 -413
49 -23 70 -27 147 -27 80 0 97 4 155 32 92 44 150 103 190 193 20 45 24 72 24
145 1 77 -3 98 -26 147 -47 101 -137 180 -238 209 -64 17 -148 18 -205 2z
m206 -208 c121 -80 94 -286 -42 -325 -123 -36 -235 37 -247 160 -8 83 47 165
127 191 43 14 121 2 162 -26z"/>
<path d="M1023 4298 c-58 -15 -88 -91 -59 -146 58 -112 225 -42 190 79 -10 34
-46 67 -79 73 -11 2 -35 -1 -52 -6z"/>
</g>
</svg>
